<?xml version="1.0" encoding="UTF-8"?>
<svg id="Capa_2" data-name="Capa 2" xmlns="http://www.w3.org/2000/svg" viewBox="0 0 108 108">
  <defs>
    <style>
      .cls-1 {
        fill: #fff;
      }

      .cls-2 {
        fill: #feb223;
      }
    </style>
  </defs>
  <g id="Capa_1-2" data-name="Capa 1">
    <g>
      <circle class="cls-1" cx="54" cy="54" r="54"/>
      <path d="M46.92,81.52c-15.73,0-27.03-11.16-27.03-26.6s11.3-26.61,27.03-26.61c6.43,0,12.43,2.22,16.77,5.82l-5.5,5.5c-2.93-2.47-6.99-4.02-11.27-4.02-10.88,0-18.6,8-18.6,19.31s7.86,19.3,18.74,19.3c9.62,0,17.27-6.81,17.62-15.58l-17.97-.07v-6.6h26.26c1.33,17.13-9.55,29.55-26.05,29.55Z"/>
      <g>
        <rect class="cls-2" x="77.99" y="28.31" width="7.61" height="31.21"/>
        <rect class="cls-2" x="77.99" y="28.31" width="7.61" height="31.21" transform="translate(125.72 -37.88) rotate(90)"/>
      </g>
    </g>
  </g>
</svg>